/* XPM */
static char * fk_xpm[] = {
"16 16 16 1",
" 	c None",
".	c #F1EAE6",
"+	c #B69380",
"@	c #90593B",
"#	c #773510",
"$	c #7B3B17",
"%	c #CAB0A1",
"&	c #7C3C18",
"*	c #B4907C",
"=	c #E3D4CD",
"-	c #FFFFFF",
";	c #F9F6F5",
">	c #874D2D",
",	c #E2D4CC",
"'	c #DF651E",
")	c #E89261",
"                ",
"    .+@#$@+.    ",
"   %&*=-;=*&%   ",
"  %>,------,>%  ",
" .&,----''--,&. ",
" +*----)'----*+ ",
" @=---)''----=@ ",
" $;---'''''--;$ ",
" $;--'''''---;$ ",
" @=----'')---=@ ",
" +*----')----*+ ",
" .&,--''----,&. ",
"  %>,------,>%  ",
"   %&*=-;=*&%   ",
"    .+@#$@+.    ",
"                "};
